<?xml version="1.0" encoding="UTF-8"?>
<svg version="1.1" xmlns="http://www.w3.org/2000/svg" width="230" height="227">
<path d="M0 0 C1.17022202 -0.00671722 2.34044403 -0.01343445 3.54612732 -0.02035522 C7.40099375 -0.03929651 11.25568567 -0.0432577 15.1105957 -0.04541016 C16.44636422 -0.04826017 17.78213205 -0.05145268 19.11789894 -0.05498123 C26.11605162 -0.07345116 33.11412845 -0.081656 40.11230469 -0.08007812 C46.60274567 -0.07887877 53.09285303 -0.09994814 59.58320969 -0.13156545 C65.18184501 -0.15785231 70.78037223 -0.16844021 76.37906867 -0.16716731 C79.71123166 -0.16666112 83.04286348 -0.17403495 86.37500572 -0.19352341 C90.10054008 -0.21327046 93.82523131 -0.20730992 97.55078125 -0.1953125 C98.6322644 -0.20655151 99.71374756 -0.21779053 100.82800293 -0.22937012 C117.4230996 -0.09458021 131.64586396 6.88150897 143.36450195 18.35693359 C154.90922664 30.30262705 159.4028582 44.98822353 159.3894043 61.19165039 C159.39612152 62.36187241 159.40283875 63.53209442 159.40975952 64.73777771 C159.4287008 68.59264414 159.432662 72.44733606 159.43481445 76.30224609 C159.43766447 77.63801461 159.44085698 78.97378244 159.44438553 80.30954933 C159.46285546 87.30770201 159.4710603 94.30577884 159.46948242 101.30395508 C159.46828307 107.79439606 159.48935244 114.28450342 159.52096975 120.77486008 C159.54725661 126.3734954 159.5578445 131.97202262 159.5565716 137.57071906 C159.55606542 140.90288205 159.56343924 144.23451387 159.5829277 147.56665611 C159.60267476 151.29219047 159.59671422 155.0168817 159.5847168 158.74243164 C159.59595581 159.82391479 159.60719482 160.90539795 159.61877441 162.01965332 C159.48398451 178.61474999 152.50789533 192.83751435 141.0324707 204.55615234 C129.08677725 216.10087703 114.40118077 220.59450859 98.19775391 220.58105469 C97.02753189 220.58777191 95.85730988 220.59448914 94.65162659 220.60140991 C90.79676015 220.62035119 86.94206823 220.62431239 83.0871582 220.62646484 C81.75138969 220.62931486 80.41562186 220.63250737 79.07985497 220.63603592 C72.08170229 220.65450585 65.08362546 220.66271069 58.08544922 220.66113281 C51.59500824 220.65993346 45.10490088 220.68100283 38.61454421 220.71262014 C33.01590889 220.738907 27.41738167 220.74949489 21.81868523 220.74822199 C18.48652225 220.74771581 15.15489043 220.75508963 11.82274818 220.77457809 C8.09721383 220.79432515 4.3725226 220.78836461 0.64697266 220.77636719 C-0.4345105 220.7876062 -1.51599365 220.79884521 -2.63024902 220.8104248 C-19.22534569 220.6756349 -33.44811005 213.69954572 -45.16674805 202.22412109 C-56.71147273 190.27842764 -61.20510429 175.59283116 -61.19165039 159.3894043 C-61.19836761 158.21918228 -61.20508484 157.04896027 -61.21200562 155.84327698 C-61.2309469 151.98841054 -61.23490809 148.13371863 -61.23706055 144.27880859 C-61.23991056 142.94304008 -61.24310307 141.60727225 -61.24663162 140.27150536 C-61.26510155 133.27335268 -61.27330639 126.27527585 -61.27172852 119.27709961 C-61.27052916 112.78665863 -61.29159853 106.29655127 -61.32321584 99.8061946 C-61.3495027 94.20755928 -61.3600906 88.60903206 -61.3588177 83.01033562 C-61.35831151 79.67817264 -61.36568534 76.34654082 -61.3851738 73.01439857 C-61.40492085 69.28886422 -61.39896031 65.56417299 -61.38696289 61.83862305 C-61.3982019 60.75713989 -61.40944092 59.67565674 -61.42102051 58.56140137 C-61.2862306 41.9663047 -54.31014142 27.74354034 -42.8347168 16.02490234 C-30.88902334 4.48017766 -16.20342686 -0.0134539 0 0 Z M96.09887695 94.29052734 C89.40284441 102.00822258 87.60316478 109.67631321 87.79418945 119.74755859 C88.41776963 126.9986768 90.55875108 132.23917216 95.91137695 137.22802734 C103.94341961 143.49154685 112.35615643 144.87930557 122.36450195 144.00537109 C127.55547966 143.24462436 131.88573035 142.59581836 136.09887695 139.29052734 C136.78958627 136.29994409 136.78958627 136.29994409 136.5871582 132.87255859 C136.57104492 131.61894531 136.55493164 130.36533203 136.53833008 129.07373047 C136.49643555 127.76339844 136.45454102 126.45306641 136.41137695 125.10302734 C136.38629357 123.76778206 136.36348043 122.43249206 136.34301758 121.09716797 C136.28399217 117.82716027 136.20169171 114.55940402 136.09887695 111.29052734 C132.45306008 111.26165223 128.80727232 111.24377149 125.16137695 111.22802734 C124.12045898 111.21964844 123.07954102 111.21126953 122.00708008 111.20263672 C121.01772461 111.19941406 120.02836914 111.19619141 119.0090332 111.19287109 C118.09259033 111.18763428 117.17614746 111.18239746 116.23193359 111.17700195 C114.11524672 111.05131523 114.11524672 111.05131523 113.09887695 112.29052734 C112.9383388 114.16374682 112.9383388 114.16374682 112.97387695 116.29052734 C112.97129883 117.01240234 112.9687207 117.73427734 112.96606445 118.47802734 C112.90192419 120.31142149 112.90192419 120.31142149 114.09887695 121.29052734 C117.76803465 121.43363022 121.42603136 121.33274396 125.09887695 121.29052734 C124.76887695 124.92052734 124.43887695 128.55052734 124.09887695 132.29052734 C118.64563775 134.10827375 113.96893938 133.97438432 108.78637695 131.60302734 C104.75420341 129.36556634 102.84926834 126.861017 101.5480957 122.40380859 C100.15402956 115.84563658 100.80959527 110.18854967 104.09887695 104.29052734 C107.74083778 99.977679 110.99638069 97.61017847 116.67700195 97.02490234 C122.78750559 97.06063628 128.18434078 97.73917359 134.09887695 99.29052734 C134.09887695 95.99052734 134.09887695 92.69052734 134.09887695 89.29052734 C121.84680021 83.16448897 106.55683926 85.92770859 96.09887695 94.29052734 Z M-35.90112305 87.29052734 C-35.90112305 105.77052734 -35.90112305 124.25052734 -35.90112305 143.29052734 C-32.60112305 143.29052734 -29.30112305 143.29052734 -25.90112305 143.29052734 C-25.57112305 129.10052734 -25.24112305 114.91052734 -24.90112305 100.29052734 C-23.25112305 105.57052734 -21.60112305 110.85052734 -19.90112305 116.29052734 C-18.33856392 120.94544138 -16.76296875 125.59057902 -15.15112305 130.22802734 C-14.75280273 131.38753906 -14.35448242 132.54705078 -13.9440918 133.74169922 C-13.56381836 134.83933594 -13.18354492 135.93697266 -12.79174805 137.06787109 C-12.45175781 138.05005615 -12.11176758 139.03224121 -11.76147461 140.04418945 C-11.10030654 142.22715159 -11.10030654 142.22715159 -9.90112305 143.29052734 C-8.38184267 143.36232698 -6.85944823 143.37444742 -5.33862305 143.35302734 C-4.1631189 143.33647095 -4.1631189 143.33647095 -2.96386719 143.31958008 C-2.28316162 143.30999268 -1.60245605 143.30040527 -0.90112305 143.29052734 C3.12946196 134.85508872 5.94234432 126.09521579 8.84887695 117.22802734 C11.44762695 109.33896484 11.44762695 109.33896484 14.09887695 101.29052734 C14.42887695 115.15052734 14.75887695 129.01052734 15.09887695 143.29052734 C18.72887695 143.29052734 22.35887695 143.29052734 26.09887695 143.29052734 C27.77900037 141.61040393 27.22635034 139.53965542 27.22827148 137.23583984 C27.23299973 135.61911377 27.23299973 135.61911377 27.23782349 133.96972656 C27.23579926 132.79684082 27.23377502 131.62395508 27.23168945 130.41552734 C27.23264618 129.22072754 27.23360291 128.02592773 27.23458862 126.79492188 C27.23527066 124.26285754 27.23341473 121.73079147 27.22924805 119.19873047 C27.22390016 115.30741474 27.22919228 111.41621445 27.2355957 107.52490234 C27.23493493 105.07177709 27.23365377 102.6186519 27.23168945 100.16552734 C27.23371368 98.9926416 27.23573792 97.81975586 27.23782349 96.61132812 C27.23467133 95.53351074 27.23151917 94.45569336 27.22827148 93.34521484 C27.22747589 92.39114746 27.2266803 91.43708008 27.2258606 90.45410156 C27.34048543 88.31064845 27.34048543 88.31064845 26.09887695 87.29052734 C23.40232842 87.21733113 20.73196237 87.19810197 18.03637695 87.22802734 C16.89845703 87.23479492 16.89845703 87.23479492 15.73754883 87.24169922 C13.85795824 87.25352054 11.97840797 87.27145657 10.09887695 87.29052734 C6.32912427 95.23424862 3.62019291 103.44535521 0.91137695 111.79052734 C0.23737955 113.86037024 -0.43799878 115.92972417 -1.11701965 117.9979248 C-1.72575645 119.85281837 -2.32956333 121.70932768 -2.93310547 123.56591797 C-3.90112305 126.29052734 -3.90112305 126.29052734 -4.90112305 127.29052734 C-5.25416504 126.18539795 -5.60720703 125.08026855 -5.97094727 123.94165039 C-7.28198041 119.84198225 -8.59916293 115.74431188 -9.91821289 111.6472168 C-10.48825328 109.87366768 -11.05662441 108.09958113 -11.62329102 106.32495117 C-12.4380777 103.77428356 -13.25884726 101.2256087 -14.08081055 98.67724609 C-14.33297333 97.88340012 -14.58513611 97.08955414 -14.84494019 96.27165222 C-15.92509613 92.94009537 -16.94667355 90.2222016 -18.90112305 87.29052734 C-24.51112305 87.29052734 -30.12112305 87.29052734 -35.90112305 87.29052734 Z M40.09887695 88.29052734 C40.00012526 89.97307969 39.97088791 91.65976763 39.96948242 93.34521484 C39.96633026 94.42303223 39.9631781 95.50084961 39.95993042 96.61132812 C39.96195465 97.78421387 39.96397888 98.95709961 39.96606445 100.16552734 C39.96510773 101.36032715 39.964151 102.55512695 39.96316528 103.78613281 C39.96248324 106.31819715 39.96433918 108.85026322 39.96850586 111.38232422 C39.97385374 115.27363994 39.96856163 119.16484024 39.9621582 123.05615234 C39.96281898 125.5092776 39.96410013 127.96240278 39.96606445 130.41552734 C39.96404022 131.58841309 39.96201599 132.76129883 39.95993042 133.96972656 C39.96308258 135.04754395 39.96623474 136.12536133 39.96948242 137.23583984 C39.97027802 138.18990723 39.97107361 139.14397461 39.97189331 140.12695312 C39.85726848 142.27040623 39.85726848 142.27040623 41.09887695 143.29052734 C44.59128674 143.54543213 48.0982873 143.47577181 51.59887695 143.47802734 C53.05293945 143.49639648 53.05293945 143.49639648 54.53637695 143.51513672 C63.22586144 143.53265584 71.18892476 143.04882084 78.09887695 137.29052734 C81.43091818 133.51421396 81.72875328 129.67263434 81.58325195 124.79833984 C80.7608583 120.54046302 78.41958629 117.95798238 75.09887695 115.29052734 C72.4140782 113.82627202 72.4140782 113.82627202 70.09887695 113.29052734 C71.02700195 112.73365234 71.95512695 112.17677734 72.91137695 111.60302734 C76.17348742 109.23639819 77.58868919 107.98209742 79.09887695 104.29052734 C79.77171837 99.20142426 79.77171837 99.20142426 78.1496582 94.51318359 C74.01931679 89.1841311 69.48257002 88.12715672 63.09887695 87.29052734 C59.32718109 87.14757465 55.560359 87.15085211 51.78637695 87.16552734 C50.7725293 87.16166016 49.75868164 87.15779297 48.71411133 87.15380859 C47.75182617 87.15509766 46.78954102 87.15638672 45.7980957 87.15771484 C44.91984131 87.15884277 44.04158691 87.1599707 43.13671875 87.16113281 C41.10429401 87.06481778 41.10429401 87.06481778 40.09887695 88.29052734 Z " fill="#2563E8" transform="translate(65.901123046875,2.70947265625)"/>
<path d="M0 0 C1.32 0.33 2.64 0.66 4 1 C3.57847656 1.67546875 3.15695313 2.3509375 2.72265625 3.046875 C2.17480469 3.93890625 1.62695312 4.8309375 1.0625 5.75 C0.24458984 7.07257813 0.24458984 7.07257813 -0.58984375 8.421875 C-4.60989721 15.77155723 -4.00789475 25.92886331 -2 33.875 C-1.67 34.90625 -1.34 35.9375 -1 37 C-1.66 37 -2.32 37 -3 37 C-3 36.34 -3 35.68 -3 35 C-3.99 35 -4.98 35 -6 35 C-6.66 34.01 -7.32 33.02 -8 32 C-8.29562367 37.32170494 -8.29562367 37.32170494 -6 42 C-7.32 42 -8.64 42 -10 42 C-10.66 42.99 -11.32 43.98 -12 45 C-13.32 44.67 -14.64 44.34 -16 44 C-15.34 43.21625 -14.68 42.4325 -14 41.625 C-11.17099633 37.3460052 -11.07498402 32.95486821 -12 28 C-13.85984152 24.13786102 -16.34354135 22.27249227 -20.3125 20.625 C-21.199375 20.41875 -22.08625 20.2125 -23 20 C-20.83170013 17.72328514 -18.63335392 15.72813851 -16 14 C-15.01 14 -14.02 14 -13 14 C-12.67 12.68 -12.34 11.36 -12 10 C-11.01 10 -10.02 10 -9 10 C-8.67 9.01 -8.34 8.02 -8 7 C-7.34 7 -6.68 7 -6 7 C-6 7.66 -6 8.32 -6 9 C-1.71929002 5.22406041 -1.71929002 5.22406041 0 0 Z " fill="#2562E8" transform="translate(158,97)"/>
<path d="M0 0 C11.03030303 -0.48484848 11.03030303 -0.48484848 15.25 1.625 C17 4 17 4 17.625 6.9375 C17 10 17 10 15.25 12.875 C10.21579984 16.16659241 5.93639972 15.32617581 0 15 C0 10.05 0 5.1 0 0 Z " fill="#2463E8" transform="translate(118,122)"/>
<path d="M0 0 C9.09090909 -0.60606061 9.09090909 -0.60606061 13.1875 2.125 C15 5 15 5 15 8.125 C13.96916471 11.08865145 13.47246004 12.16316149 11 14 C7.29631297 14.40199208 3.73655831 14.13187853 0 14 C0 9.38 0 4.76 0 0 Z " fill="#2C62DB" transform="translate(118,99)"/>
<path d="M0 0 C0.33 0 0.66 0 1 0 C1 14.85 1 29.7 1 45 C0.34 45 -0.32 45 -1 45 C-1.33 36.09 -1.66 27.18 -2 18 C-4.76591336 20.76591336 -4.4737411 23.18462299 -5 27 C-5.875 29.375 -5.875 29.375 -7 31 C-7.99 31.33 -8.98 31.66 -10 32 C-7.32756186 21.1320849 -3.59356149 10.58898853 0 0 Z " fill="#3763C2" transform="translate(80,101)"/>
<path d="M0 0 C1.28756445 2.5751289 0.6890759 3.24369639 0 6 C-0.40340946 13.61787165 -0.33332445 20.7083611 2 28 C1.34 28 0.68 28 0 28 C0 27.34 0 26.68 0 26 C-0.99 26 -1.98 26 -3 26 C-3.66 25.01 -4.32 24.02 -5 23 C-5.29562367 28.32170494 -5.29562367 28.32170494 -3 33 C-4.32 33 -5.64 33 -7 33 C-7.66 33.99 -8.32 34.98 -9 36 C-10.32 35.67 -11.64 35.34 -13 35 C-12.34 34.21625 -11.68 33.4325 -11 32.625 C-8.17935746 28.42404303 -8.30619109 23.88893258 -9 19 C-9.94599299 16.76148141 -9.94599299 16.76148141 -11 15 C-6.125 16.75 -6.125 16.75 -5 19 C-4.67 18.01 -4.34 17.02 -4 16 C-3.34 16 -2.68 16 -2 16 C-2.02320313 15.18015625 -2.04640625 14.3603125 -2.0703125 13.515625 C-2.09738281 11.89914063 -2.09738281 11.89914063 -2.125 10.25 C-2.14820313 9.18265625 -2.17140625 8.1153125 -2.1953125 7.015625 C-2.00487687 4.07529894 -1.52670104 2.47638122 0 0 Z " fill="#3263D0" transform="translate(155,106)"/>
<path d="M0 0 C0.66 0.33 1.32 0.66 2 1 C1.64695801 1.99854004 1.29391602 2.99708008 0.93017578 4.02587891 C-0.38611832 7.74932141 -1.70170759 11.47301263 -3.01708984 15.19677734 C-3.58525846 16.80491767 -4.1536153 18.41299151 -4.72216797 20.02099609 C-5.54184295 22.33934126 -6.36082895 24.65792886 -7.1796875 26.9765625 C-7.43185028 27.68930328 -7.68401306 28.40204407 -7.94381714 29.13638306 C-9.33519916 33.0784862 -10.69099423 37.02953022 -12 41 C-14 40 -14 40 -15.10546875 37.1640625 C-15.46253906 35.99617188 -15.81960937 34.82828125 -16.1875 33.625 C-16.55230469 32.46226563 -16.91710938 31.29953125 -17.29296875 30.1015625 C-18 27 -18 27 -17 24 C-16.01 27.3 -15.02 30.6 -14 34 C-13.01 34 -12.02 34 -11 34 C-10.81824219 32.67935547 -10.81824219 32.67935547 -10.6328125 31.33203125 C-10.46523438 30.17058594 -10.29765625 29.00914063 -10.125 27.8125 C-9.96257812 26.66394531 -9.80015625 25.51539062 -9.6328125 24.33203125 C-9.05939755 21.31275375 -8.25240957 18.79424152 -7 16 C-6.34 16 -5.68 16 -5 16 C-4.34 12.04 -3.68 8.08 -3 4 C-2.34 4 -1.68 4 -1 4 C-0.67 2.68 -0.34 1.36 0 0 Z " fill="#3A65C3" transform="translate(74,90)"/>
<path d="M0 0 C0 0.33 0 0.66 0 1 C-0.90492188 1.07347656 -0.90492188 1.07347656 -1.828125 1.1484375 C-2.62734375 1.22320312 -3.4265625 1.29796875 -4.25 1.375 C-5.43335938 1.47941406 -5.43335938 1.47941406 -6.640625 1.5859375 C-9.16320317 2.02864162 -10.84993049 2.6109359 -13 4 C-14.20750126 5.66900889 -14.20750126 5.66900889 -15.0625 7.5625 C-17 11 -17 11 -20 12 C-22.27645664 15.2349647 -22.25800605 18.12990929 -22 22 C-21.67 22.33 -21.34 22.66 -21 23 C-20.95919217 24.99958364 -20.95745644 27.00045254 -21 29 C-20.34 29 -19.68 29 -19 29 C-18.01 30.98 -17.02 32.96 -16 35 C-19.84478875 33.54163185 -21.1822915 31.63541701 -23 28 C-25.12204609 20.9021217 -24.52100281 14.53900521 -21 8 C-15.81284787 -0.15123907 -8.87031164 -0.48188816 0 0 Z " fill="#3465CA" transform="translate(190,99)"/>
<path d="M0 0 C3.96 0 7.92 0 12 0 C12 0.33 12 0.66 12 1 C8.37 1 4.74 1 1 1 C1 4.96 1 8.92 1 13 C4.96 13 8.92 13 13 13 C13 9.04 13 5.08 13 1 C17 4 17 4 17.5625 6.875 C17 10 17 10 15.25 12.875 C10.21579984 16.16659241 5.93639972 15.32617581 0 15 C0 10.05 0 5.1 0 0 Z " fill="#3A64C2" transform="translate(118,122)"/>
<path d="M0 0 C0.33 0 0.66 0 1 0 C1.33 18.15 1.66 36.3 2 55 C0.68 54.67 -0.64 54.34 -2 54 C-1.505 53.505 -1.505 53.505 -1 53 C-0.87709282 51.34355634 -0.82216092 49.68201007 -0.79467773 48.02124023 C-0.77473251 46.96021591 -0.75478729 45.89919159 -0.73423767 44.80601501 C-0.71752518 43.651866 -0.70081268 42.49771698 -0.68359375 41.30859375 C-0.66281265 40.13361832 -0.64203156 38.95864288 -0.62062073 37.74806213 C-0.55499876 33.97793676 -0.4961817 30.20773918 -0.4375 26.4375 C-0.3943268 23.88866427 -0.35071292 21.33983597 -0.30664062 18.79101562 C-0.19930455 12.52742108 -0.0975621 6.26375399 0 0 Z " fill="#2E61D8" transform="translate(94,91)"/>
<path d="M0 0 C2.42130331 2.42130331 2.52840504 3.80111377 3.125 7.125 C3.29257812 8.03507812 3.46015625 8.94515625 3.6328125 9.8828125 C3.81457031 10.93082031 3.81457031 10.93082031 4 12 C3.01 11.67 2.02 11.34 1 11 C1 21.89 1 32.78 1 44 C0.67 44 0.34 44 0 44 C0 29.48 0 14.96 0 0 Z " fill="#325DBB" transform="translate(40,101)"/>
<path d="M0 0 C1.32 0.33 2.64 0.66 4 1 C5.046875 2.9609375 5.046875 2.9609375 5.75 5.375 C5.99234375 6.16648437 6.2346875 6.95796875 6.484375 7.7734375 C7 10 7 10 7 13 C6.01 12.67 5.02 12.34 4 12 C4 11.34 4 10.68 4 10 C2.68 10.99 1.36 11.98 0 13 C0 8.71 0 4.42 0 0 Z " fill="#2961DE" transform="translate(41,112)"/>
<path d="M0 0 C0.66 0 1.32 0 2 0 C2.22551667 4.27010907 2.42747453 8.54101182 2.625 12.8125 C2.68945312 14.02744141 2.75390625 15.24238281 2.8203125 16.49414062 C2.871875 17.65751953 2.9234375 18.82089844 2.9765625 20.01953125 C3.02893066 21.09307861 3.08129883 22.16662598 3.13525391 23.27270508 C3 26 3 26 1 29 C0 28 0 28 -0.11352539 25.31616211 C-0.10828857 24.14835205 -0.10305176 22.98054199 -0.09765625 21.77734375 C-0.09443359 20.51728516 -0.09121094 19.25722656 -0.08789062 17.95898438 C-0.07953403 16.61848891 -0.07106907 15.27799412 -0.0625 13.9375 C-0.0574866 12.59310058 -0.05292342 11.2486994 -0.04882812 9.90429688 C-0.03699488 6.60282059 -0.02050971 3.30143197 0 0 Z " fill="#376ED8" transform="translate(202,114)"/>
<path d="M0 0 C0 5.04169875 -3.78637167 8.32159072 -7 12 C-9.9375 14.5625 -9.9375 14.5625 -12 16 C-11.57640444 13.54314575 -11.34489637 12.3035088 -9.4375 10.625 C-7.66863275 8.96237867 -7.66863275 8.96237867 -7.8125 5.8125 C-7.874375 4.884375 -7.93625 3.95625 -8 3 C-7.236875 2.87625 -6.47375 2.7525 -5.6875 2.625 C-2.79732864 2.11897208 -2.79732864 2.11897208 0 0 Z " fill="#2A63DA" transform="translate(216,193)"/>
<path d="M0 0 C2 1 2 1 3 3 C2.195625 3.226875 1.39125 3.45375 0.5625 3.6875 C-0.283125 4.120625 -1.12875 4.55375 -2 5 C-2.67147918 7.44063441 -2.67147918 7.44063441 -3 10 C-4.74790644 12.44706902 -5.74248716 12.93412462 -8.6875 13.6875 C-9.8321875 13.8421875 -9.8321875 13.8421875 -11 14 C-9.57442379 10.82096506 -7.8226848 8.46341568 -5.5 5.875 C-4.8915625 5.19179688 -4.283125 4.50859375 -3.65625 3.8046875 C-2.46695076 2.50880012 -1.24373566 1.24373566 0 0 Z " fill="#2E62D3" transform="translate(26,16)"/>
<path d="M0 0 C1.32 0.33 2.64 0.66 4 1 C3.21448343 2.31618998 2.4213763 3.62785228 1.625 4.9375 C1.18414062 5.66839844 0.74328125 6.39929688 0.2890625 7.15234375 C-1 9 -1 9 -3 10 C-3.99 11.485 -3.99 11.485 -5 13 C-5.99 12.34 -6.98 11.68 -8 11 C-8 9.68 -8 8.36 -8 7 C-7.34 7 -6.68 7 -6 7 C-6 7.66 -6 8.32 -6 9 C-1.71929002 5.22406041 -1.71929002 5.22406041 0 0 Z " fill="#3063D5" transform="translate(158,97)"/>
<path d="M0 0 C1.32 0.99 2.64 1.98 4 3 C4.51020728 7.08165827 4.31361802 8.52957297 2 12 C1.34 12 0.68 12 0 12 C0 8.04 0 4.08 0 0 Z " fill="#305FCE" transform="translate(131,123)"/>
<path d="M0 0 C0.66 0.33 1.32 0.66 2 1 C1.71572583 2.58467728 1.42225182 4.1677057 1.125 5.75 C0.96257812 6.63171875 0.80015625 7.5134375 0.6328125 8.421875 C0.0201397 10.91794938 -0.60916971 12.84080892 -2 15 C-2.99 15.33 -3.98 15.66 -5 16 C-4.54548816 14.26982492 -4.08621143 12.54090123 -3.625 10.8125 C-3.36976562 9.84957031 -3.11453125 8.88664062 -2.8515625 7.89453125 C-2.05233704 5.17789793 -1.0968638 2.60862825 0 0 Z " fill="#3865CE" transform="translate(75,117)"/>
<path d="M0 0 C-0.33 0.99 -0.66 1.98 -1 3 C-0.67 3.99 -0.34 4.98 0 6 C-3.93673644 4.68775452 -6.22719294 3.08089673 -9 0 C-5.52176885 -1.15941038 -3.54104422 -0.70820884 0 0 Z " fill="#2C61D7" transform="translate(37,210)"/>
<path d="M0 0 C1.23367942 2.46735884 1 4.26809601 1 7 C1.33 7.66 1.66 8.32 2 9 C-0.97 8.01 -3.94 7.02 -7 6 C-4.71658281 3.71658281 -2.59070454 1.87602742 0 0 Z " fill="#3261C6" transform="translate(142,111)"/>
<path d="M0 0 C1.98 0.66 3.96 1.32 6 2 C5.85930804 4.12534659 5.71229079 6.25027529 5.5625 8.375 C5.48128906 9.55835937 5.40007812 10.74171875 5.31640625 11.9609375 C5 15 5 15 4 17 C3.34 17 2.68 17 2 17 C2.165 16.505 2.33 16.01 2.5 15.5 C3.49534874 10.52325628 3.76233339 6.52466677 1.5 2 C1.005 1.34 0.51 0.68 0 0 Z " fill="#3465C8" transform="translate(141,94)"/>
<path d="M0 0 C0.33 0 0.66 0 1 0 C0.67 2.64 0.34 5.28 0 8 C-0.99 8.33 -1.98 8.66 -3 9 C-3 9.66 -3 10.32 -3 11 C-3.66 11 -4.32 11 -5 11 C-3.77782954 6.95743617 -2.37245704 3.50711041 0 0 Z " fill="#3263CE" transform="translate(14,30)"/>
<path d="M0 0 C2.64752004 2.57784846 4.94432065 4.91648098 7 8 C5.02 8.33 3.04 8.66 1 9 C-0.4783226 6.04335481 -0.06032783 3.25770263 0 0 Z " fill="#2F64D4" transform="translate(157,134)"/>
<path d="M0 0 C1.32 0.33 2.64 0.66 4 1 C2.23628182 2.03307771 0.46374967 3.05112049 -1.3125 4.0625 C-2.79169922 4.91521484 -2.79169922 4.91521484 -4.30078125 5.78515625 C-7 7 -7 7 -10 6 C-9.34 6 -8.68 6 -8 6 C-8 5.34 -8 4.68 -8 4 C-5.36 3.34 -2.72 2.68 0 2 C0 1.34 0 0.68 0 0 Z " fill="#3666C4" transform="translate(194,213)"/>
<path d="M0 0 C-1.00617682 2.67576692 -1.54214546 3.7785108 -4.1640625 5.046875 C-4.97617187 5.27890625 -5.78828125 5.5109375 -6.625 5.75 C-7.85089844 6.11351562 -7.85089844 6.11351562 -9.1015625 6.484375 C-10.04128906 6.73960938 -10.04128906 6.73960938 -11 7 C-4.36842105 0 -4.36842105 0 0 0 Z " fill="#3664CC" transform="translate(39,9)"/>
<path d="M0 0 C1.32 0.33 2.64 0.66 4 1 C4.33 2.65 4.66 4.3 5 6 C3.35 5.67 1.7 5.34 0 5 C0 3.35 0 1.7 0 0 Z " fill="#2657DA" transform="translate(41,112)"/>
<path d="M0 0 C0.66 0 1.32 0 2 0 C1.67 2.31 1.34 4.62 1 7 C0.01 7.33 -0.98 7.66 -2 8 C-1.125 1.125 -1.125 1.125 0 0 Z " fill="#2F65D3" transform="translate(67,106)"/>
<path d="M0 0 C1.29640378 0.59393382 2.58698839 1.20057989 3.875 1.8125 C4.59429687 2.14894531 5.31359375 2.48539063 6.0546875 2.83203125 C8 4 8 4 10 7 C2.18363463 5.08277831 2.18363463 5.08277831 0 2 C0 1.34 0 0.68 0 0 Z " fill="#3461CD" transform="translate(192,9)"/>
<path d="M0 0 C0.99 0.33 1.98 0.66 3 1 C0.69 3.31 -1.62 5.62 -4 8 C-4.33 7.01 -4.66 6.02 -5 5 C-3.35 3.35 -1.7 1.7 0 0 Z " fill="#3562C2" transform="translate(209,201)"/>
<path d="M0 0 C-1.65 1.32 -3.3 2.64 -5 4 C-5.66 2.68 -6.32 1.36 -7 0 C-4.3333581 -1.33332095 -2.83319697 -0.67102033 0 0 Z " fill="#3162D0" transform="translate(168,93)"/>
</svg>
